<svg height="410pt" viewBox="0 0 410 410.00006" width="410pt" xmlns="http://www.w3.org/2000/svg" xmlns:xlink="http://www.w3.org/1999/xlink"><linearGradient id="a"><stop offset="0" stop-color="#00efd1"/><stop offset="1" stop-color="#00acea"/></linearGradient><linearGradient id="b" gradientUnits="userSpaceOnUse" x1="197.07903" x2="197.07903" xlink:href="#a" y1="-15.231" y2="428.824"/><linearGradient id="c" gradientUnits="userSpaceOnUse" x1="100.14703" x2="100.14703" xlink:href="#a" y1="-15.231" y2="428.824"/><linearGradient id="d" gradientUnits="userSpaceOnUse" x1="70.14703" x2="70.14703" xlink:href="#a" y1="-15.231" y2="428.824"/><linearGradient id="e" gradientUnits="userSpaceOnUse" x1="160.14703" x2="160.14703" xlink:href="#a" y1="-15.231" y2="428.824"/><linearGradient id="f" gradientUnits="userSpaceOnUse" x1="150.14703" x2="150.14703" xlink:href="#a" y1="-15.231" y2="428.824"/><linearGradient id="g" gradientUnits="userSpaceOnUse" x1="240.14703" x2="240.14703" xlink:href="#a" y1="-15.231" y2="428.824"/><linearGradient id="h" gradientUnits="userSpaceOnUse" x1="260.14703" x2="260.14703" xlink:href="#a" y1="-15.231" y2="428.824"/><linearGradient id="i" gradientUnits="userSpaceOnUse" x1="200.14703" x2="200.14703" xlink:href="#a" y1="-15.231" y2="428.824"/><linearGradient id="j" gradientUnits="userSpaceOnUse" x1="283.14703" x2="283.14703" xlink:href="#a" y1="-15.231" y2="428.824"/><linearGradient id="k" gradientUnits="userSpaceOnUse" x1="360.14703" x2="360.14703" xlink:href="#a" y1="-15.231" y2="428.824"/><linearGradient id="l" gradientUnits="userSpaceOnUse" x1="369.14703" x2="369.14703" xlink:href="#a" y1="-15.231" y2="428.824"/><linearGradient id="m" gradientUnits="userSpaceOnUse" x1="340.14703" x2="340.14703" xlink:href="#a" y1="-15.231" y2="428.824"/><linearGradient id="n" gradientUnits="userSpaceOnUse" x1="320.14703" x2="320.14703" xlink:href="#a" y1="-15.231" y2="428.824"/><path d="m386.15625 394h-370.15625v-365.480469c0-4.417969-3.582031-8-8-8s-8 3.582031-8 8v373.480469c.101562 4.457031 3.75 8.015625 8.210938 8h377.945312c4.417969 0 8-3.582031 8-8s-3.582031-8-8-8zm0 0" fill="url(#b)"/><path d="m100.148438 171.285156c22.445312 0 40.640624-18.195312 40.640624-40.640625 0-22.449219-18.195312-40.644531-40.640624-40.644531-22.445313 0-40.640626 18.195312-40.640626 40.640625.023438 22.4375 18.203126 40.617187 40.640626 40.644531zm0-65.285156c13.609374 0 24.640624 11.03125 24.640624 24.640625s-11.03125 24.644531-24.640624 24.644531c-13.609376 0-24.640626-11.035156-24.640626-24.644531.011719-13.601563 11.035157-24.625 24.640626-24.640625zm0 0" fill="url(#c)"/><path d="m70.148438 281.285156c22.445312 0 40.640624-18.195312 40.640624-40.640625 0-22.449219-18.195312-40.644531-40.640624-40.644531-22.445313 0-40.640626 18.195312-40.640626 40.640625.023438 22.4375 18.203126 40.617187 40.640626 40.644531zm0-65.285156c13.609374 0 24.640624 11.03125 24.640624 24.640625s-11.03125 24.644531-24.640624 24.644531c-13.609376 0-24.640626-11.035156-24.640626-24.644531.011719-13.601563 11.035157-24.625 24.640626-24.640625zm0 0" fill="url(#d)"/><path d="m160.148438 160c-22.449219 0-40.644532 18.195312-40.644532 40.640625 0 22.449219 18.195313 40.644531 40.644532 40.644531 22.445312 0 40.640624-18.195312 40.640624-40.644531-.023437-22.433594-18.207031-40.617187-40.640624-40.640625zm0 65.285156c-13.609376 0-24.644532-11.035156-24.644532-24.644531s11.035156-24.640625 24.644532-24.640625c13.609374 0 24.640624 11.03125 24.640624 24.640625-.015624 13.605469-11.039062 24.628906-24.640624 24.644531zm0 0" fill="url(#e)"/><path d="m150.148438 260c-22.449219 0-40.644532 18.195312-40.644532 40.640625 0 22.449219 18.195313 40.644531 40.644532 40.644531 22.445312 0 40.640624-18.195312 40.640624-40.644531-.023437-22.433594-18.207031-40.617187-40.640624-40.640625zm0 65.285156c-13.609376 0-24.644532-11.035156-24.644532-24.644531s11.035156-24.640625 24.644532-24.640625c13.609374 0 24.640624 11.03125 24.640624 24.640625-.015624 13.605469-11.039062 24.628906-24.640624 24.644531zm0 0" fill="url(#f)"/><path d="m240.148438 311.285156c22.445312 0 40.640624-18.195312 40.640624-40.640625 0-22.449219-18.195312-40.644531-40.640624-40.644531-22.445313 0-40.640626 18.195312-40.640626 40.640625.023438 22.4375 18.203126 40.617187 40.640626 40.644531zm0-65.285156c13.609374 0 24.640624 11.03125 24.640624 24.640625s-11.03125 24.644531-24.640624 24.644531c-13.609376 0-24.640626-11.035156-24.640626-24.644531.011719-13.601563 11.035157-24.625 24.640626-24.640625zm0 0" fill="url(#g)"/><path d="m300.789062 180.640625c0-22.445313-18.195312-40.640625-40.640624-40.640625-22.449219 0-40.644532 18.195312-40.644532 40.640625 0 22.449219 18.195313 40.644531 40.644532 40.644531 22.433593-.027344 40.617187-18.207031 40.640624-40.644531zm-65.28125 0c0-13.609375 11.03125-24.640625 24.640626-24.640625 13.609374 0 24.640624 11.03125 24.640624 24.644531 0 13.609375-11.03125 24.640625-24.640624 24.640625-13.605469-.015625-24.628907-11.039062-24.640626-24.644531zm0 0" fill="url(#h)"/><path d="m200.148438 141.285156c22.445312 0 40.640624-18.195312 40.640624-40.640625 0-22.449219-18.195312-40.644531-40.640624-40.644531-22.445313 0-40.640626 18.195312-40.640626 40.640625.023438 22.4375 18.203126 40.617187 40.640626 40.644531zm0-65.285156c13.609374 0 24.640624 11.03125 24.640624 24.640625s-11.03125 24.644531-24.640624 24.644531c-13.609376 0-24.640626-11.035156-24.640626-24.644531.011719-13.601563 11.035157-24.625 24.640626-24.640625zm0 0" fill="url(#i)"/><path d="m283.148438 114.285156c22.445312 0 40.640624-18.195312 40.640624-40.640625 0-22.449219-18.195312-40.644531-40.640624-40.644531-22.445313 0-40.640626 18.195312-40.640626 40.640625.023438 22.4375 18.203126 40.617187 40.640626 40.644531zm0-65.285156c13.609374 0 24.640624 11.03125 24.640624 24.640625s-11.03125 24.644531-24.640624 24.644531c-13.609376 0-24.640626-11.035156-24.640626-24.644531.011719-13.601563 11.035157-24.625 24.640626-24.640625zm0 0" fill="url(#j)"/><path d="m360.148438 90c-22.449219 0-40.644532 18.195312-40.644532 40.640625 0 22.449219 18.195313 40.644531 40.644532 40.644531 22.445312 0 40.640624-18.195312 40.640624-40.644531-.023437-22.433594-18.207031-40.617187-40.640624-40.640625zm0 65.285156c-13.609376 0-24.644532-11.035156-24.644532-24.644531s11.035156-24.640625 24.644532-24.640625c13.609374 0 24.640624 11.03125 24.640624 24.640625-.015624 13.605469-11.039062 24.628906-24.640624 24.644531zm0 0" fill="url(#k)"/><path d="m369.148438 0c-22.449219 0-40.644532 18.195312-40.644532 40.640625 0 22.449219 18.195313 40.644531 40.644532 40.644531 22.445312 0 40.640624-18.195312 40.640624-40.644531-.023437-22.433594-18.207031-40.6171875-40.640624-40.640625zm0 65.285156c-13.609376 0-24.644532-11.035156-24.644532-24.644531s11.035156-24.640625 24.644532-24.640625c13.609374 0 24.640624 11.03125 24.640624 24.640625-.015624 13.605469-11.039062 24.628906-24.640624 24.644531zm0 0" fill="url(#l)"/><path d="m380.789062 230.640625c0-22.445313-18.195312-40.640625-40.640624-40.640625-22.449219 0-40.644532 18.195312-40.644532 40.640625 0 22.449219 18.195313 40.644531 40.644532 40.644531 22.433593-.027344 40.617187-18.207031 40.640624-40.644531zm-40.640624 24.644531c-13.609376 0-24.644532-11.035156-24.644532-24.644531s11.035156-24.640625 24.644532-24.640625c13.609374 0 24.640624 11.03125 24.640624 24.640625-.015624 13.605469-11.039062 24.628906-24.640624 24.644531zm0 0" fill="url(#m)"/><path d="m320.148438 361.285156c22.445312 0 40.640624-18.195312 40.640624-40.640625 0-22.449219-18.195312-40.644531-40.640624-40.644531-22.445313 0-40.640626 18.195312-40.640626 40.640625.023438 22.4375 18.203126 40.617187 40.640626 40.644531zm0-65.285156c13.609374 0 24.640624 11.03125 24.640624 24.640625s-11.03125 24.644531-24.640624 24.644531c-13.609376 0-24.640626-11.035156-24.640626-24.644531.011719-13.601563 11.035157-24.625 24.640626-24.640625zm0 0" fill="url(#n)"/><path d="m70.148438 380.285156c22.445312 0 40.640624-18.195312 40.640624-40.640625 0-22.449219-18.195312-40.644531-40.640624-40.644531-22.445313 0-40.640626 18.195312-40.640626 40.640625.023438 22.4375 18.203126 40.617187 40.640626 40.644531zm0-65.285156c13.609374 0 24.640624 11.03125 24.640624 24.640625s-11.03125 24.644531-24.640624 24.644531c-13.609376 0-24.640626-11.035156-24.640626-24.644531.011719-13.601563 11.035157-24.625 24.640626-24.640625zm0 0" fill="url(#d)"/></svg>