<svg height="394pt" viewBox="0 0 394 394.00013" width="394pt" xmlns="http://www.w3.org/2000/svg"><path d="m7 6.519531c-3.867188 0-7 3.132813-7 7v373.480469c.148438 3.925781 3.386719 7.023438 7.316406 7h377.945313c3.867187 0 7-3.132812 7-7s-3.132813-7-7-7h-371.261719v-366.480469c0-3.867187-3.132812-7-7-7zm0 0"/><path d="m99.253906 90c-14.160156.003906-25.640625 11.484375-25.636718 25.644531 0 14.160157 11.480468 25.640625 25.640624 25.640625 14.164063-.003906 25.640626-11.480468 25.640626-25.644531-.015626-14.15625-11.488282-25.628906-25.644532-25.640625zm0 0"/><path d="m43.609375 225.640625c0 14.164063 11.480469 25.644531 25.644531 25.644531 14.160156 0 25.640625-11.480468 25.640625-25.644531 0-14.160156-11.480469-25.640625-25.640625-25.640625-14.15625.015625-25.625 11.488281-25.644531 25.640625zm0 0"/><path d="m133.609375 185.640625c0 14.164063 11.480469 25.644531 25.644531 25.644531 14.160156 0 25.640625-11.480468 25.640625-25.644531 0-14.160156-11.480469-25.640625-25.640625-25.640625-14.15625.015625-25.625 11.488281-25.644531 25.640625zm0 0"/><path d="m123.609375 285.640625c0 14.164063 11.480469 25.644531 25.644531 25.644531 14.160156 0 25.640625-11.480468 25.640625-25.644531 0-14.160156-11.480469-25.640625-25.640625-25.640625-14.15625.015625-25.625 11.488281-25.644531 25.640625zm0 0"/><path d="m213.609375 255.640625c0 14.164063 11.480469 25.644531 25.644531 25.644531 14.160156 0 25.640625-11.480468 25.640625-25.644531 0-14.160156-11.480469-25.640625-25.640625-25.640625-14.15625.015625-25.625 11.488281-25.644531 25.640625zm0 0"/><path d="m233.609375 165.640625c0 14.164063 11.480469 25.644531 25.644531 25.644531 14.160156 0 25.640625-11.480468 25.640625-25.644531 0-14.160156-11.480469-25.640625-25.640625-25.640625-14.15625.015625-25.625 11.488281-25.644531 25.640625zm0 0"/><path d="m199.253906 60c-14.160156.003906-25.640625 11.484375-25.636718 25.644531 0 14.160157 11.480468 25.640625 25.640624 25.640625 14.164063-.003906 25.640626-11.480468 25.640626-25.644531-.015626-14.15625-11.488282-25.628906-25.644532-25.640625zm0 0"/><path d="m282.253906 33c-14.160156.003906-25.640625 11.484375-25.636718 25.644531 0 14.160157 11.480468 25.640625 25.640624 25.640625 14.164063-.003906 25.640626-11.480468 25.640626-25.644531-.015626-14.15625-11.488282-25.628906-25.644532-25.640625zm0 0"/><path d="m359.253906 141.285156c14.160156 0 25.640625-11.480468 25.640625-25.644531 0-14.160156-11.480469-25.640625-25.640625-25.640625-14.164062 0-25.644531 11.480469-25.644531 25.640625.019531 14.15625 11.488281 25.628906 25.644531 25.644531zm0 0"/><path d="m368.253906 0c-14.160156.00390625-25.640625 11.484375-25.636718 25.644531 0 14.160157 11.480468 25.640625 25.640624 25.640625 14.164063-.003906 25.640626-11.480468 25.640626-25.644531-.015626-14.15625-11.488282-25.6289062-25.644532-25.640625zm0 0"/><path d="m313.609375 215.640625c0 14.164063 11.480469 25.644531 25.644531 25.644531 14.160156 0 25.640625-11.480468 25.640625-25.644531 0-14.160156-11.480469-25.640625-25.640625-25.640625-14.15625.015625-25.625 11.488281-25.644531 25.640625zm0 0"/><path d="m293.609375 305.640625c0 14.164063 11.480469 25.644531 25.644531 25.644531 14.160156 0 25.640625-11.480468 25.640625-25.644531 0-14.160156-11.480469-25.640625-25.640625-25.640625-14.15625.015625-25.625 11.488281-25.644531 25.640625zm0 0"/><path d="m69.253906 350.285156c14.160156 0 25.640625-11.480468 25.640625-25.644531 0-14.160156-11.480469-25.640625-25.640625-25.640625-14.164062 0-25.644531 11.480469-25.644531 25.640625.019531 14.15625 11.488281 25.628906 25.644531 25.644531zm0 0"/></svg>