<svg id="Layer_1" enable-background="new 0 0 511.765 511.765" height="512" viewBox="0 0 511.765 511.765" width="512" xmlns="http://www.w3.org/2000/svg"><g><g><g><g><g><ellipse cx="267.26" cy="255.886" fill="#c9f0ff" rx="237.099" ry="238.26"/></g><path d="m267.26 17.626c-5.038 0-10.04.159-15 .47 123.958 7.777 222.099 111.265 222.099 237.789s-98.141 230.014-222.099 237.79c4.96.311 9.962.47 15 .47 130.946 0 237.099-106.673 237.099-238.26s-106.153-238.259-237.099-238.259z" fill="#b5eaff"/><g fill="#3498ac"><path d="m138.998 49.847c-4.061-.831-8.022 1.784-8.853 5.841-.38 1.854-.039 3.687.829 5.212 4.778-3.378 9.685-6.583 14.713-9.607-2.222-.501-4.45-.987-6.689-1.446z"/><path d="m28.822 224.811c.458 1.738 1.49 3.172 2.838 4.153.493-4.406 1.107-8.775 1.836-13.104-3.598 1.313-5.669 5.174-4.674 8.951z"/><path d="m126.588 451.372c.002.686.096 1.383.297 2.075.062.213.133.421.212.624.001.007.003.015.004.022.697 3.582 3.836 6.069 7.354 6.069.475 0 .957-.045 1.441-.14 1.822-.354 3.358-1.341 4.43-2.688.063-.019.126-.039.189-.058-5.027-3.202-9.928-6.587-14.689-10.149.245 1.416.498 2.83.762 4.245z"/><path d="m398.625 460.022c.484.094.966.14 1.441.14 3.517 0 6.657-2.487 7.354-6.069.452-2.322.878-4.646 1.282-6.97-4.734 3.541-9.604 6.907-14.6 10.093 1.075 1.406 2.649 2.441 4.523 2.806z"/><path d="m404.374 55.688c-.832-4.058-4.795-6.672-8.853-5.841-2.238.459-4.467.945-6.689 1.446 5.028 3.024 9.935 6.229 14.713 9.607.868-1.525 1.209-3.358.829-5.212z"/><path d="m462.219 113.509c.933-4.036-1.582-8.064-5.617-8.997-1.965-.453-3.927-.088-5.532.869 3.465 4.268 6.786 8.657 9.954 13.163.407-1.674.806-3.353 1.195-5.035z"/></g></g></g><g fill="#ff815c"><ellipse cx="267.26" cy="112.16" rx="22.801" ry="22.913"/><ellipse cx="178.527" cy="212.834" rx="22.801" ry="22.913"/><ellipse cx="385.897" cy="271.32" rx="22.801" ry="22.913"/><path d="m134.087 474.27c-12.573 0-22.801-10.278-22.801-22.913s10.228-22.913 22.801-22.913 22.802 10.278 22.802 22.913-10.229 22.913-22.802 22.913z"/><path d="m401.75 475.573c-12.573 0-22.801-10.279-22.801-22.913s10.228-22.913 22.801-22.913 22.802 10.278 22.802 22.913c0 12.634-10.229 22.913-22.802 22.913z"/><path d="m454.912 133.913c-12.573 0-22.802-10.278-22.802-22.913s10.229-22.913 22.802-22.913 22.801 10.279 22.801 22.913-10.228 22.913-22.801 22.913z"/><path d="m397.027 80.107c-12.573 0-22.801-10.278-22.801-22.913s10.228-22.913 22.801-22.913 22.802 10.278 22.802 22.913-10.23 22.913-22.802 22.913z"/><path d="m134.087 80.107c-12.573 0-22.801-10.278-22.801-22.913s10.228-22.913 22.801-22.913 22.802 10.278 22.802 22.913-10.229 22.913-22.802 22.913z"/><ellipse cx="30.16" cy="224.639" rx="22.801" ry="22.913"/></g></g><path d="m491.945 353.116c.15-.305.283-.617.389-.937 30.321-69.981 24.903-155.775-14.478-221.349 21.024-25.133-6.285-61.125-36.149-47.199-5.248-5.363-10.758-10.503-16.468-15.363 11.208-30.468-26.198-55.462-49.494-32.698-67.711-34.191-151.928-33.758-219.265 1.157-23.954-25.385-64.183 1.833-49.68 33.683-8.306 7.263-16.168 15.109-23.417 23.406-6.259 7.164 5.08 16.983 11.296 9.869 6.744-7.718 14.051-15.019 21.769-21.785 14.925 10.765 36.566 5.281 44.754-11.151 27.021 7.778 52.825 18.941 76.87 33.268-2.013 7.259-1.191 15.366 2.263 22.067-19.79 17.095-37.612 36.433-53.088 57.626-14.287-4.317-30.035 2.909-36.248 16.439-31.507.169-63.112 3.558-94.142 10.117-2.74-5.106-6.894-9.337-11.93-12.171 5.83-22.735 15.064-44.362 27.502-64.359 4.956-7.97-7.554-16.255-12.737-7.923-13.224 21.26-23.046 44.251-29.258 68.419-35.93.61-41.962 50.316-7.757 59.878-.504 70.742 30.082 139.52 83.12 186.372-11.064 29.887 24.855 54.539 48.559 33.459 69.178 36.785 156.607 36.79 225.789.012 24.109 23.844 62.723-2.794 49.143-33.965 27.335-24.293 48.57-54.006 62.657-86.872zm-9.45-16.774c-20.761-20.626-43.481-39.337-67.738-55.762 3.445-10.791.451-22.932-7.594-30.898 20.398-33.915 36.411-70.281 47.683-108.27 3.756.013 7.367-.68 10.694-1.934 34.539 58.333 40.856 133.543 16.955 196.864zm-345.126 84.784c-6.312-61.825 4.764-123.504 32.177-179.243 17.03 5.314 35.437-5.885 38.744-23.366 51.715 6.375 101.522 21.558 148.264 45.203-2.248 8.738-.387 18.373 4.968 25.642-52.687 66.749-122.234 116.976-201.83 145.763-4.823-7.637-12.934-12.98-22.323-13.999zm233.227-149.806c0-8.499 6.864-15.413 15.301-15.413 20.298.845 20.292 29.984 0 30.826-8.437 0-15.301-6.914-15.301-15.413zm99.617-160.32c0 8.499-6.864 15.413-15.301 15.413-20.299-.845-20.294-29.984 0-30.826 8.437 0 15.301 6.914 15.301 15.413zm-39.967-17.632c-10.366 14.565-5.555 35.62 10.073 44.277-10.919 36.644-26.399 71.722-46.092 104.441-4.117-1.184-8.687-1.478-12.92-.83-20.584-43.955-50.535-83.546-87.123-115.17 3.457-6.705 4.281-14.798 2.265-22.067 23.159-13.798 47.966-24.672 73.907-32.402 8.622 16.646 31.751 21.346 46.11 8.885 4.759 4.094 9.366 8.395 13.78 12.866zm-178.287 18.793c0-8.499 6.864-15.413 15.301-15.413 20.299.845 20.293 29.983 0 30.825-8.437 0-15.301-6.914-15.301-15.412zm145.068-70.379c8.438 0 15.302 6.914 15.302 15.413-.842 20.447-29.764 20.442-30.603 0 0-8.499 6.864-15.413 15.301-15.413zm-262.94 30.825c-8.437 0-15.301-6.914-15.301-15.413.842-20.448 29.764-20.441 30.603 0 0 8.499-6.865 15.413-15.302 15.413zm30.273-16.563c-.078-2.082-.364-4.109-.84-6.065 62.783-32.467 141.216-33.033 204.483-1.51-.813 2.719-1.258 5.594-1.273 8.571-27.286 8.072-53.377 19.474-77.735 33.961-11.708-12.111-31.757-12.115-43.469-.001-25.383-15.098-52.63-26.834-81.166-34.956zm85.905 81.282c10.142 6.922 23.845 6.923 33.988.001 34.932 30.161 63.548 67.916 83.259 109.841-1.336 1.027-2.584 2.164-3.732 3.395-49.279-24.995-101.867-40.887-156.491-47.281-1.475-4.464-3.951-8.472-7.165-11.753 14.66-19.915 31.484-38.104 50.141-54.203zm-71.738 60.095c8.437 0 15.301 6.914 15.301 15.413-.842 20.448-29.764 20.442-30.603 0 .001-8.499 6.865-15.413 15.302-15.413zm-163.668 27.218c0-8.499 6.864-15.413 15.301-15.413 20.298.845 20.292 29.983 0 30.825-8.436.001-15.301-6.913-15.301-15.412zm22.817 29.465s22.781-4.968 22.781-29.267c0 0 58.456-9.344 87.867-9.672.552 7.266 3.655 13.823 8.414 18.771-29.228 58.801-41.017 123.993-34.231 189.321-2.922 1.218-5.612 2.883-7.99 4.907-48.931-43.834-76.841-117.278-76.841-174.06zm96.411 212.665c-8.437 0-15.301-6.914-15.301-15.413s6.864-15.413 15.301-15.413c8.324 0 15.302 7.21 15.302 15.413 0 8.499-6.865 15.413-15.302 15.413zm133.173 19.877c-36.401 0-72.397-8.718-104.569-25.269 1.306-3.743 1.882-8.007 1.628-11.979 82.338-29.679 154.289-81.546 208.795-150.513 4.478 2.1 9.447 3.064 14.384 2.805 3.332 12.367 5.965 24.984 7.831 37.6 1.429 9.658 16.272 7.5 14.839-2.194-1.981-13.396-4.786-26.794-8.347-39.916 1.793-1.116 3.459-2.417 4.977-3.872 25.028 16.991 48.362 36.496 69.501 58.083-13.11 28.981-32.191 55.222-56.434 76.905-2.397-1.8-5.07-3.248-7.939-4.278 1.474-13.943 2.116-28.021 1.9-41.945-.152-9.798-15.151-9.568-14.998.232.208 13.384-.412 26.917-1.836 40.32-17.689 2.813-29.258 21.155-24.384 38.345-32.374 16.814-68.649 25.676-105.348 25.676zm134.49-18.573c-8.437 0-15.301-6.914-15.301-15.413.842-20.448 29.764-20.441 30.603 0 0 8.499-6.864 15.413-15.302 15.413z"/></g></svg>